<svg width="43" height="43" viewBox="0 0 43 43" fill="none" xmlns="http://www.w3.org/2000/svg">
<path d="M21.5 35.8334C18.1738 35.8334 14.9838 34.512 12.6317 32.16C10.2797 29.808 8.95837 26.6179 8.95837 23.2917C8.95837 19.9654 10.2797 16.7754 12.6317 14.4234C14.9838 12.0714 18.1738 10.75 21.5 10.75C24.8263 10.75 28.0163 12.0714 30.3683 14.4234C32.7204 16.7754 34.0417 19.9654 34.0417 23.2917C34.0417 26.6179 32.7204 29.808 30.3683 32.16C28.0163 34.512 24.8263 35.8334 21.5 35.8334ZM21.5 7.16669C17.2234 7.16669 13.122 8.86557 10.0979 11.8896C7.07392 14.9136 5.37504 19.0151 5.37504 23.2917C5.37504 27.5683 7.07392 31.6698 10.0979 34.6938C13.122 37.7178 17.2234 39.4167 21.5 39.4167C25.7767 39.4167 29.8781 37.7178 32.9021 34.6938C35.9262 31.6698 37.625 27.5683 37.625 23.2917C37.625 19.0151 35.9262 14.9136 32.9021 11.8896C29.8781 8.86557 25.7767 7.16669 21.5 7.16669M22.3959 14.3334H19.7084V25.0834L28.2188 30.1896L29.5625 27.9859L22.3959 23.7396V14.3334ZM14.1184 6.07377L11.825 3.33252L3.58337 10.2304L5.89462 12.9717L14.1184 6.07377ZM39.4167 10.2484L31.175 3.33252L28.8638 6.07377L37.1055 12.9896L39.4167 10.2484Z" fill="#999999"/>
</svg>
